<svg width="33" height="30" viewBox="0 0 33 30" fill="none" xmlns="http://www.w3.org/2000/svg">
<path d="M32.2675 7.38501C32.1178 7.16346 31.9178 6.98238 31.6848 6.85727C31.4517 6.73217 31.1926 6.66677 30.9294 6.66667H8.6814L6.80284 2.05001C6.55653 1.44204 6.13944 0.922655 5.60445 0.557692C5.06946 0.19273 4.44067 -0.0013684 3.79781 7.26207e-06H0V3.33334H3.79781L11.5204 22.3083C11.6441 22.6119 11.8528 22.8713 12.1201 23.0537C12.3875 23.2361 12.7016 23.3334 13.0229 23.3333H26.0458C26.7246 23.3333 27.3318 22.9017 27.5711 22.2533L32.4547 8.92001C32.547 8.66771 32.5782 8.39626 32.5456 8.12892C32.513 7.86159 32.4176 7.60632 32.2675 7.38501ZM24.9177 20H14.1087L10.039 10H28.5804L24.9177 20Z" fill="black"/>
<path d="M13.8368 30C15.1854 30 16.2786 28.8807 16.2786 27.5C16.2786 26.1193 15.1854 25 13.8368 25C12.4882 25 11.395 26.1193 11.395 27.5C11.395 28.8807 12.4882 30 13.8368 30Z" fill="black"/>
<path d="M25.2318 30C26.5804 30 27.6736 28.8807 27.6736 27.5C27.6736 26.1193 26.5804 25 25.2318 25C23.8833 25 22.79 26.1193 22.79 27.5C22.79 28.8807 23.8833 30 25.2318 30Z" fill="black"/>
</svg>
