<svg width="24" height="30" viewBox="0 0 24 30" fill="none" xmlns="http://www.w3.org/2000/svg">
<path d="M12 29.25C10.0002 27.5442 8.14649 25.6741 6.45835 23.6593C3.92502 20.6335 0.916688 16.1273 0.916688 11.8333C0.91559 9.64036 1.56508 7.49634 2.78295 5.67263C4.00083 3.84891 5.73235 2.42748 7.75838 1.58822C9.78441 0.748953 12.0139 0.529588 14.1646 0.957882C16.3154 1.38618 18.2907 2.44288 19.8407 3.99425C20.8726 5.02161 21.6906 6.24344 22.2472 7.58901C22.8038 8.93459 23.088 10.3772 23.0834 11.8333C23.0834 16.1273 20.075 20.6335 17.5417 23.6593C15.8535 25.6741 13.9999 27.5442 12 29.25ZM12 3.91667C9.90116 3.91918 7.88899 4.75407 6.40487 6.23818C4.92075 7.7223 4.08587 9.73448 4.08335 11.8333C4.08335 13.6795 4.91777 16.8763 8.88877 21.6278C9.86747 22.7964 10.9059 23.9136 12 24.975C13.0941 23.9149 14.1331 22.7992 15.1129 21.6326C19.0823 16.8747 19.9167 13.6779 19.9167 11.8333C19.9142 9.73448 19.0793 7.7223 17.5952 6.23818C16.1111 4.75407 14.0989 3.91918 12 3.91667ZM12 16.5833C10.7402 16.5833 9.53206 16.0829 8.64126 15.1921C7.75047 14.3013 7.25002 13.0931 7.25002 11.8333C7.25002 10.5736 7.75047 9.36538 8.64126 8.47458C9.53206 7.58378 10.7402 7.08334 12 7.08334C13.2598 7.08334 14.468 7.58378 15.3588 8.47458C16.2496 9.36538 16.75 10.5736 16.75 11.8333C16.75 13.0931 16.2496 14.3013 15.3588 15.1921C14.468 16.0829 13.2598 16.5833 12 16.5833Z" fill="black"/>
</svg>
