<svg width="19" height="19" viewBox="0 0 19 19" fill="none" xmlns="http://www.w3.org/2000/svg">
<path d="M19 17L13.846 11.846C14.7988 10.3979 15.1804 8.64777 14.917 6.93445C14.6535 5.22113 13.7637 3.6665 12.4199 2.57156C11.076 1.47662 9.37366 0.91925 7.64245 1.00737C5.91123 1.09549 4.27429 1.82283 3.04855 3.04857C1.82281 4.27431 1.09547 5.91125 1.00735 7.64247C0.919227 9.37369 1.47659 11.076 2.57154 12.4199C3.66648 13.7638 5.22111 14.6535 6.93442 14.917C8.64774 15.1805 10.3979 14.7988 11.846 13.846L17 19L19 17ZM2.99998 8C2.99998 5.243 5.24298 3 7.99998 3C10.757 3 13 5.243 13 8C13 10.757 10.757 13 7.99998 13C5.24298 13 2.99998 10.757 2.99998 8Z" fill="black"/>
</svg>
