<svg width="27" height="27" viewBox="0 0 27 27" fill="none" xmlns="http://www.w3.org/2000/svg">
<path d="M18.375 15.5859C16.6934 15.5859 15.8848 16.4062 13.125 16.4062C10.3652 16.4062 9.5625 15.5859 7.875 15.5859C3.52734 15.5859 0 18.6724 0 22.4766V23.7891C0 25.1477 1.25977 26.25 2.8125 26.25H23.4375C24.9902 26.25 26.25 25.1477 26.25 23.7891V22.4766C26.25 18.6724 22.7227 15.5859 18.375 15.5859ZM23.4375 23.7891H2.8125V22.4766C2.8125 20.0361 5.08594 18.0469 7.875 18.0469C8.73047 18.0469 10.1191 18.8672 13.125 18.8672C16.1543 18.8672 17.5137 18.0469 18.375 18.0469C21.1641 18.0469 23.4375 20.0361 23.4375 22.4766V23.7891ZM13.125 14.7656C17.7832 14.7656 21.5625 11.4587 21.5625 7.38281C21.5625 3.30688 17.7832 0 13.125 0C8.4668 0 4.6875 3.30688 4.6875 7.38281C4.6875 11.4587 8.4668 14.7656 13.125 14.7656ZM13.125 2.46094C16.2246 2.46094 18.75 4.67065 18.75 7.38281C18.75 10.095 16.2246 12.3047 13.125 12.3047C10.0254 12.3047 7.5 10.095 7.5 7.38281C7.5 4.67065 10.0254 2.46094 13.125 2.46094Z" fill="black"/>
</svg>
